<svg width="258" height="258" viewBox="0 0 258 258" fill="none" xmlns="http://www.w3.org/2000/svg">
<g filter="url(#filter0_dd_312_1384)">
<circle cx="129" cy="125" r="125" fill="#FFD700"/>
<path d="M56.5563 156.68V91.16H59.4263V156.68H56.5563Z" fill="#000000"/>
<path d="M85.7569 95.528C84.0049 94.784 82.2649 94.412 80.5369 94.412C77.0329 94.412 75.2809 95.708 75.2809 98.3C75.2809 99.428 75.6769 100.484 76.4689 101.468C77.2609 102.428 78.2209 103.292 79.3489 104.06C80.4769 104.804 81.6049 105.572 82.7329 106.364C83.8609 107.156 84.8209 108.104 85.6129 109.208C86.4049 110.312 86.8009 111.512 86.8009 112.808C86.8009 114.992 86.0689 116.648 84.6049 117.776C83.1409 118.88 81.1129 119.432 78.5209 119.432C75.9529 119.432 73.7569 118.772 71.9329 117.452L72.7969 116.156C74.5249 117.284 76.4209 117.848 78.4849 117.848C80.5489 117.848 82.1329 117.44 83.2369 116.624C84.3409 115.784 84.8929 114.584 84.8929 113.024C84.8929 111.944 84.4969 110.924 83.7049 109.964C82.9129 108.98 81.9529 108.104 80.8249 107.336C79.6969 106.544 78.5689 105.74 77.4409 104.924C76.3129 104.108 75.3529 103.136 74.5609 102.008C73.7689 100.88 73.3729 99.668 73.3729 98.372C73.3729 96.668 73.9969 95.324 75.2449 94.34C76.5169 93.332 78.2209 92.828 80.3569 92.828C82.5169 92.828 84.5209 93.26 86.3689 94.124L85.7569 95.528ZM106.488 119.432C102.744 119.432 99.5284 118.16 96.8404 115.616C94.1524 113.048 92.8084 109.892 92.8084 106.148C92.8084 102.38 93.9844 99.224 96.3364 96.68C98.6884 94.112 101.7 92.828 105.372 92.828C108.252 92.828 111.168 93.308 114.12 94.268L113.652 95.708C110.772 94.844 108.012 94.412 105.372 94.412C102.228 94.412 99.6604 95.54 97.6684 97.796C95.6764 100.052 94.6804 102.812 94.6804 106.076C94.6804 109.34 95.8324 112.124 98.1364 114.428C100.464 116.708 103.248 117.848 106.488 117.848C109.32 117.848 111.768 117.416 113.832 116.552L114.372 117.776C113.46 118.304 112.26 118.712 110.772 119C109.308 119.288 107.88 119.432 106.488 119.432ZM121.145 119V93.368C123.425 93.2 125.333 93.116 126.869 93.116C129.317 93.116 131.333 93.752 132.917 95.024C134.501 96.272 135.293 98.048 135.293 100.352C135.293 101.912 134.837 103.364 133.925 104.708C133.013 106.052 131.993 107.12 130.865 107.912C131.753 109.136 132.845 110.6 134.141 112.304C135.461 113.984 136.313 115.04 136.697 115.472C138.161 117.032 139.817 117.92 141.665 118.136L141.629 119.288C140.165 119.264 138.977 119.048 138.065 118.64C137.153 118.208 136.277 117.56 135.437 116.696C134.621 115.832 132.569 113.144 129.281 108.632C126.929 108.632 124.793 108.56 122.873 108.416V119H121.145ZM128.237 107.192C129.293 107.192 130.421 106.496 131.621 105.104C132.821 103.712 133.421 102.104 133.421 100.28C133.421 98.432 132.797 97.04 131.549 96.104C130.325 95.144 128.693 94.664 126.653 94.664C125.573 94.664 124.313 94.712 122.873 94.808V107.012C124.793 107.132 126.581 107.192 128.237 107.192ZM144.84 119V93.26H156.792V94.772H146.568V104.24H155.82V105.716H146.568V117.488H157.188V119H144.84ZM164.106 119V93.26H176.058V94.772H165.834V104.24H175.086V105.716H165.834V117.488H176.454V119H164.106ZM185.027 97.364L185.099 100.424V119H183.371V93.044H184.163L201.119 112.592C202.271 113.96 203.159 115.052 203.783 115.868C203.687 114.716 203.639 113.396 203.639 111.908V93.26H205.367V119.216H204.575L187.295 99.308C186.095 97.94 185.327 97.028 184.991 96.572L185.027 97.364Z" fill="#000"/>
<path d="M84.6045 133.028C82.8525 132.284 81.1125 131.912 79.3845 131.912C75.8805 131.912 74.1285 133.208 74.1285 135.8C74.1285 136.928 74.5245 137.984 75.3165 138.968C76.1085 139.928 77.0685 140.792 78.1965 141.56C79.3245 142.304 80.4525 143.072 81.5805 143.864C82.7085 144.656 83.6685 145.604 84.4605 146.708C85.2525 147.812 85.6485 149.012 85.6485 150.308C85.6485 152.492 84.9165 154.148 83.4525 155.276C81.9885 156.38 79.9605 156.932 77.3685 156.932C74.8005 156.932 72.6045 156.272 70.7805 154.952L71.6445 153.656C73.3725 154.784 75.2685 155.348 77.3325 155.348C79.3965 155.348 80.9805 154.94 82.0845 154.124C83.1885 153.284 83.7405 152.084 83.7405 150.524C83.7405 149.444 83.3445 148.424 82.5525 147.464C81.7605 146.48 80.8005 145.604 79.6725 144.836C78.5445 144.044 77.4165 143.24 76.2885 142.424C75.1605 141.608 74.2005 140.636 73.4085 139.508C72.6165 138.38 72.2205 137.168 72.2205 135.872C72.2205 134.168 72.8445 132.824 74.0925 131.84C75.3645 130.832 77.0685 130.328 79.2045 130.328C81.3645 130.328 83.3685 130.76 85.2165 131.624L84.6045 133.028ZM105.336 156.932C101.592 156.932 98.376 155.66 95.688 153.116C93 150.548 91.656 147.392 91.656 143.648C91.656 139.88 92.832 136.724 95.184 134.18C97.536 131.612 100.548 130.328 104.22 130.328C107.1 130.328 110.016 130.808 112.968 131.768L112.5 133.208C109.62 132.344 106.86 131.912 104.22 131.912C101.076 131.912 98.508 133.04 96.516 135.296C94.524 137.552 93.528 140.312 93.528 143.576C93.528 146.84 94.68 149.624 96.984 151.928C99.312 154.208 102.096 155.348 105.336 155.348C108.168 155.348 110.616 154.916 112.68 154.052L113.22 155.276C112.308 155.804 111.108 156.212 109.62 156.5C108.156 156.788 106.728 156.932 105.336 156.932ZM119.992 156.5V130.76H131.944V132.272H121.72V141.74H130.972V143.216H121.72V154.988H132.34V156.5H119.992ZM140.914 134.864L140.986 137.924V156.5H139.258V130.544H140.05L157.006 150.092C158.158 151.46 159.046 152.552 159.67 153.368C159.574 152.216 159.526 150.896 159.526 149.408V130.76H161.254V156.716H160.462L143.182 136.808C141.982 135.44 141.214 134.528 140.878 134.072L140.914 134.864ZM170.758 156.5V130.76H182.71V132.272H172.486V141.74H181.738V143.216H172.486V154.988H183.106V156.5H170.758Z" fill="#000"/>
</g>
<defs>
<filter id="filter0_dd_312_1384" x="0" y="0" width="258" height="258" filterUnits="userSpaceOnUse" color-interpolation-filters="sRGB">
<feFlood flood-opacity="0" result="BackgroundImageFix"/>
<feColorMatrix in="SourceAlpha" type="matrix" values="0 0 0 0 0 0 0 0 0 0 0 0 0 0 0 0 0 0 127 0" result="hardAlpha"/>
<feOffset dy="4"/>
<feGaussianBlur stdDeviation="2"/>
<feComposite in2="hardAlpha" operator="out"/>
<feColorMatrix type="matrix" values="0 0 0 0 0 0 0 0 0 0 0 0 0 0 0 0 0 0 0.25 0"/>
<feBlend mode="normal" in2="BackgroundImageFix" result="effect1_dropShadow_312_1384"/>
<feColorMatrix in="SourceAlpha" type="matrix" values="0 0 0 0 0 0 0 0 0 0 0 0 0 0 0 0 0 0 127 0" result="hardAlpha"/>
<feOffset dy="4"/>
<feGaussianBlur stdDeviation="2"/>
<feComposite in2="hardAlpha" operator="out"/>
<feColorMatrix type="matrix" values="0 0 0 0 0 0 0 0 0 0 0 0 0 0 0 0 0 0 0.25 0"/>
<feBlend mode="normal" in2="effect1_dropShadow_312_1384" result="effect2_dropShadow_312_1384"/>
<feBlend mode="normal" in="SourceGraphic" in2="effect2_dropShadow_312_1384" result="shape"/>
</filter>
</defs>
</svg>
